move_right_leg_forward coordinate motion generated from LLM joint_angles
version=1
nRows=21
nColumns=36
inDegrees=yes
endheader
time	pelvis_tilt	pelvis_list	pelvis_rotation	pelvis_tx	pelvis_ty	pelvis_tz	hip_flexion_r	hip_adduction_r	hip_rotation_r	knee_angle_r	knee_angle_r_beta	ankle_angle_r	subtalar_angle_r	mtp_angle_r	hip_flexion_l	hip_adduction_l	hip_rotation_l	knee_angle_l	knee_angle_l_beta	ankle_angle_l	subtalar_angle_l	mtp_angle_l	lumbar_extension	lumbar_bending	lumbar_rotation	arm_flex_r	arm_add_r	arm_rot_r	elbow_flex_r	pro_sup_r	arm_flex_l	arm_add_l	arm_rot_l	elbow_flex_l	pro_sup_l
0.000000	0.000000	-0.000000	0.000000	0.000000	0.000000	0.000000	0.000000	-0.000000	0.000000	0.000000	0.000000	-0.000000	0.000000	0.000000	0.000000	0.000000	0.000000	0.000000	0.000000	0.000000	0.000000	0.000000	0.000000	0.000000	0.000000	0.000000	0.000000	0.000000	0.000000	0.000000	0.000000	0.000000	0.000000	0.000000	0.000000
0.006667	0.104712	-0.104712	0.000000	0.000000	0.000000	0.000000	0.942409	-0.209424	0.000000	0.209424	0.000000	-0.209424	0.000000	0.000000	0.000000	0.000000	0.000000	0.000000	0.000000	0.000000	0.000000	0.000000	0.000000	0.000000	0.000000	0.000000	0.000000	0.000000	0.000000	0.000000	0.000000	0.000000	0.000000	0.000000	0.000000
0.013333	0.209378	-0.209378	0.000000	0.000000	0.000000	0.000000	1.884404	-0.418757	0.000000	0.418757	0.000000	-0.418757	0.000000	0.000000	0.000000	0.000000	0.000000	0.000000	0.000000	0.000000	0.000000	0.000000	0.000000	0.000000	0.000000	0.000000	0.000000	0.000000	0.000000	0.000000	0.000000	0.000000	0.000000	0.000000	0.000000
0.020000	0.313953	-0.313953	0.000000	0.000000	0.000000	0.000000	2.825573	-0.627905	0.000000	0.627905	0.000000	-0.627905	0.000000	0.000000	0.000000	0.000000	0.000000	0.000000	0.000000	0.000000	0.000000	0.000000	0.000000	0.000000	0.000000	0.000000	0.000000	0.000000	0.000000	0.000000	0.000000	0.000000	0.000000	0.000000	0.000000
0.026667	0.418389	-0.418389	0.000000	0.000000	0.000000	0.000000	3.765503	-0.836778	0.000000	0.836778	0.000000	-0.836778	0.000000	0.000000	0.000000	0.000000	0.000000	0.000000	0.000000	0.000000	0.000000	0.000000	0.000000	0.000000	0.000000	0.000000	0.000000	0.000000	0.000000	0.000000	0.000000	0.000000	0.000000	0.000000	0.000000
0.033333	0.522642	-0.522642	0.000000	0.000000	0.000000	0.000000	4.703781	-1.045285	0.000000	1.045285	0.000000	-1.045285	0.000000	0.000000	0.000000	0.000000	0.000000	0.000000	0.000000	0.000000	0.000000	0.000000	0.000000	0.000000	0.000000	0.000000	0.000000	0.000000	0.000000	0.000000	0.000000	0.000000	0.000000	0.000000	0.000000
0.040000	0.626666	-0.626666	0.000000	0.000000	0.000000	0.000000	5.639996	-1.253332	0.000000	1.253332	0.000000	-1.253332	0.000000	0.000000	0.000000	0.000000	0.000000	0.000000	0.000000	0.000000	0.000000	0.000000	0.000000	0.000000	0.000000	0.000000	0.000000	0.000000	0.000000	0.000000	0.000000	0.000000	0.000000	0.000000	0.000000
0.046667	0.730415	-0.730415	0.000000	0.000000	0.000000	0.000000	6.573736	-1.460830	0.000000	1.460830	0.000000	-1.460830	0.000000	0.000000	0.000000	0.000000	0.000000	0.000000	0.000000	0.000000	0.000000	0.000000	0.000000	0.000000	0.000000	0.000000	0.000000	0.000000	0.000000	0.000000	0.000000	0.000000	0.000000	0.000000	0.000000
0.053333	0.833844	-0.833844	0.000000	0.000000	0.000000	0.000000	7.504594	-1.667687	0.000000	1.667687	0.000000	-1.667687	0.000000	0.000000	0.000000	0.000000	0.000000	0.000000	0.000000	0.000000	0.000000	0.000000	0.000000	0.000000	0.000000	0.000000	0.000000	0.000000	0.000000	0.000000	0.000000	0.000000	0.000000	0.000000	0.000000
0.060000	0.936907	-0.936907	0.000000	0.000000	0.000000	0.000000	8.432159	-1.873813	0.000000	1.873813	0.000000	-1.873813	0.000000	0.000000	0.000000	0.000000	0.000000	0.000000	0.000000	0.000000	0.000000	0.000000	0.000000	0.000000	0.000000	0.000000	0.000000	0.000000	0.000000	0.000000	0.000000	0.000000	0.000000	0.000000	0.000000
0.066667	1.039558	-1.039558	0.000000	0.000000	0.000000	0.000000	9.356026	-2.079117	0.000000	2.079117	0.000000	-2.079117	0.000000	0.000000	0.000000	0.000000	0.000000	0.000000	0.000000	0.000000	0.000000	0.000000	0.000000	0.000000	0.000000	0.000000	0.000000	0.000000	0.000000	0.000000	0.000000	0.000000	0.000000	0.000000	0.000000
0.073333	1.141754	-1.141754	0.000000	0.000000	0.000000	0.000000	10.275789	-2.283509	0.000000	2.283509	0.000000	-2.283509	0.000000	0.000000	0.000000	0.000000	0.000000	0.000000	0.000000	0.000000	0.000000	0.000000	0.000000	0.000000	0.000000	0.000000	0.000000	0.000000	0.000000	0.000000	0.000000	0.000000	0.000000	0.000000	0.000000
0.080000	1.243449	-1.243449	0.000000	0.000000	0.000000	0.000000	11.191045	-2.486899	0.000000	2.486899	0.000000	-2.486899	0.000000	0.000000	0.000000	0.000000	0.000000	0.000000	0.000000	0.000000	0.000000	0.000000	0.000000	0.000000	0.000000	0.000000	0.000000	0.000000	0.000000	0.000000	0.000000	0.000000	0.000000	0.000000	0.000000
0.086667	1.344599	-1.344599	0.000000	0.000000	0.000000	0.000000	12.101392	-2.689198	0.000000	2.689198	0.000000	-2.689198	0.000000	0.000000	0.000000	0.000000	0.000000	0.000000	0.000000	0.000000	0.000000	0.000000	0.000000	0.000000	0.000000	0.000000	0.000000	0.000000	0.000000	0.000000	0.000000	0.000000	0.000000	0.000000	0.000000
0.093333	1.445159	-1.445159	0.000000	0.000000	0.000000	0.000000	13.006431	-2.890318	0.000000	2.890318	0.000000	-2.890318	0.000000	0.000000	0.000000	0.000000	0.000000	0.000000	0.000000	0.000000	0.000000	0.000000	0.000000	0.000000	0.000000	0.000000	0.000000	0.000000	0.000000	0.000000	0.000000	0.000000	0.000000	0.000000	0.000000
0.100000	1.545085	-1.545085	0.000000	0.000000	0.000000	0.000000	13.905765	-3.090170	0.000000	3.090170	0.000000	-3.090170	0.000000	0.000000	0.000000	0.000000	0.000000	0.000000	0.000000	0.000000	0.000000	0.000000	0.000000	0.000000	0.000000	0.000000	0.000000	0.000000	0.000000	0.000000	0.000000	0.000000	0.000000	0.000000	0.000000
0.106667	1.644333	-1.644333	0.000000	0.000000	0.000000	0.000000	14.798999	-3.288666	0.000000	3.288666	0.000000	-3.288666	0.000000	0.000000	0.000000	0.000000	0.000000	0.000000	0.000000	0.000000	0.000000	0.000000	0.000000	0.000000	0.000000	0.000000	0.000000	0.000000	0.000000	0.000000	0.000000	0.000000	0.000000	0.000000	0.000000
0.113333	1.742860	-1.742860	0.000000	0.000000	0.000000	0.000000	15.685742	-3.485720	0.000000	3.485720	0.000000	-3.485720	0.000000	0.000000	0.000000	0.000000	0.000000	0.000000	0.000000	0.000000	0.000000	0.000000	0.000000	0.000000	0.000000	0.000000	0.000000	0.000000	0.000000	0.000000	0.000000	0.000000	0.000000	0.000000	0.000000
0.120000	1.840623	-1.840623	0.000000	0.000000	0.000000	0.000000	16.565605	-3.681246	0.000000	3.681246	0.000000	-3.681246	0.000000	0.000000	0.000000	0.000000	0.000000	0.000000	0.000000	0.000000	0.000000	0.000000	0.000000	0.000000	0.000000	0.000000	0.000000	0.000000	0.000000	0.000000	0.000000	0.000000	0.000000	0.000000	0.000000
0.126667	1.937578	-1.937578	0.000000	0.000000	0.000000	0.000000	17.438201	-3.875156	0.000000	3.875156	0.000000	-3.875156	0.000000	0.000000	0.000000	0.000000	0.000000	0.000000	0.000000	0.000000	0.000000	0.000000	0.000000	0.000000	0.000000	0.000000	0.000000	0.000000	0.000000	0.000000	0.000000	0.000000	0.000000	0.000000	0.000000
0.133333	2.033683	-2.033683	0.000000	0.000000	0.000000	0.000000	18.303149	-4.067366	0.000000	4.067366	0.000000	-4.067366	0.000000	0.000000	0.000000	0.000000	0.000000	0.000000	0.000000	0.000000	0.000000	0.000000	0.000000	0.000000	0.000000	0.000000	0.000000	0.000000	0.000000	0.000000	0.000000	0.000000	0.000000	0.000000	0.000000
